# xmcd CD database file
#
# Track frame offsets:
#	150
#	20543
#	36646
#	50172
#	67316
#	86879
#	104310
#	119333
#	135195
#	156572
#	173129
#	188793
#	205236
#	226734
#
# Disc length: 3268 seconds
#
# Revision: 0
# Processed by: cddbd v1.5.2PL0 Copyright (c) Steve Scherf et al.
# Submitted via: CDex 2.18
#
DISCID=cc0cc20e
DTITLE=The Bellamy Brothers - Over The Moon
DYEAR=2019
DGENRE=Country
TTITLE0=The Bellamy Brothers - If You Ever Leave
TTITLE1=The Bellamy Brothers - Over The Moon
TTITLE2=The Bellamy Brothers - Dream The Dream
TTITLE3=The Bellamy Brothers - Wings To Soar (For Those That I Have Wronged)
TTITLE4=The Bellamy Brothers - Redneck Rockstar
TTITLE5=The Bellamy Brothers - Mr. Wrong
TTITLE6=The Bellamy Brothers - Just When I Got My Mind Together (My Body Fell Apart)
TTITLE7=The Bellamy Brothers - Everybody Needs A Beast
TTITLE8=The Bellamy Brothers - All Kinds Of Wonderful
TTITLE9=The Bellamy Brothers - Old Dixie Highway
TTITLE10=The Bellamy Brothers - Rocknroll Soul
TTITLE11=The Bellamy Brothers - Monkey In The Kitchen
TTITLE12=The Bellamy Brothers - Heart Of My Heart
TTITLE13=The Bellamy Brothers - Gamblers Heart (Duet with Jesse and Noah Bellamy)
EXTD=YEAR: 2019
EXTT0=
EXTT1=
EXTT2=
EXTT3=
EXTT4=
EXTT5=
EXTT6=
EXTT7=
EXTT8=
EXTT9=
EXTT10=
EXTT11=
EXTT12=
EXTT13=
PLAYORDER=
